<?xml version="1.0" encoding="UTF-8"?>
<svg version="1.1" xmlns="http://www.w3.org/2000/svg" width="256" height="256">
<path d="M0 0 C84.48 0 168.96 0 256 0 C256 84.48 256 168.96 256 256 C171.52 256 87.04 256 0 256 C0 171.52 0 87.04 0 0 Z " fill="#F7F7F7" transform="translate(0,0)"/>
<path d="M0 0 C0.66 0 1.32 0 2 0 C2.27038086 0.65145996 2.54076172 1.30291992 2.81933594 1.97412109 C11.79751846 23.54659403 21.23023871 44.89003549 31.84521484 65.71386719 C33.23237594 68.46003558 34.59488361 71.2179021 35.95703125 73.9765625 C42.55103794 87.30664955 49.41702207 100.43666936 56.60546875 113.45458984 C60.15102085 119.92621557 63.56895866 126.46715866 67 133 C63.42838592 133 61.32835619 131.98752749 58.0625 130.5625 C54.72789069 129.11213089 51.56574828 127.74751831 48 127 C48.88300781 127.54527344 49.76601562 128.09054688 50.67578125 128.65234375 C54.49507918 131.03539309 58.25117854 133.50803743 62 136 C62.99902344 136.6496875 63.99804688 137.299375 65.02734375 137.96875 C73.35223584 143.98847111 77.40665689 151.89749474 81.90576172 160.88769531 C82.97721381 162.9560138 84.14370449 164.93633525 85.34765625 166.9296875 C85.89292969 167.94289062 86.43820313 168.95609375 87 170 C86.67 170.66 86.34 171.32 86 172 C84.96782349 171.42668945 84.96782349 171.42668945 83.91479492 170.84179688 C69.9059748 163.09317917 55.96713926 155.76185452 41 150 C39.92492187 149.57203125 38.84984375 149.1440625 37.7421875 148.703125 C31.9053639 146.4594435 26.13621826 145.158956 20 144 C20.02618408 143.43192627 20.05236816 142.86385254 20.0793457 142.27856445 C20.60633868 129.0797251 20.86983152 117.31119328 12.4375 106.3125 C8.12899058 102.22493978 4.45771571 101.35707055 -1.3984375 101.50390625 C-6.20974582 102.42137796 -9.08173546 105.19210285 -12 109 C-15.12962773 114.92361423 -17.14069777 121.05114765 -17.09765625 127.765625 C-17.09443359 128.65507812 -17.09121094 129.54453125 -17.08789062 130.4609375 C-17.07951172 131.38132813 -17.07113281 132.30171875 -17.0625 133.25 C-17.05798828 134.18585938 -17.05347656 135.12171875 -17.04882812 136.0859375 C-17.03706918 138.39069041 -17.02063426 140.69531227 -17 143 C-21.89059535 144.65858499 -26.77571607 146.2338867 -31.75 147.625 C-48.80875101 152.89518324 -64.51391736 161.11600714 -79.97314453 169.92773438 C-82 171 -82 171 -85 172 C-83.71195377 168.63672687 -82.26357311 165.48831094 -80.53125 162.33203125 C-79.80639404 161.00703613 -79.80639404 161.00703613 -79.06689453 159.65527344 C-78.54981934 158.7171582 -78.03274414 157.77904297 -77.5 156.8125 C-76.96101074 155.82926758 -76.42202148 154.84603516 -75.86669922 153.83300781 C-72.64257818 147.9590415 -69.38972661 142.10145745 -66.125 136.25 C-56.39552179 118.79068451 -47.02356742 101.14416205 -37.85546875 83.38476562 C-34.11155761 76.13254416 -30.31999885 68.90999787 -26.453125 61.72265625 C-25.26546543 59.49739087 -24.11262661 57.26343158 -23 55 C-18.60616294 56.59623144 -14.71004193 58.78024333 -10.6875 61.125 C-10.04232422 61.49753906 -9.39714844 61.87007812 -8.73242188 62.25390625 C-7.15324055 63.16632213 -5.57638136 64.08275509 -4 65 C-6.52439516 62.43317803 -8.96744584 60.0253199 -11.8125 57.8125 C-12.534375 57.214375 -13.25625 56.61625 -14 56 C-14 55.34 -14 54.68 -14 54 C-15.485 53.505 -15.485 53.505 -17 53 C-19 50 -19 50 -18.82958984 47.32373047 C-17.82387111 43.29434412 -16.35999477 39.6306751 -14.7265625 35.8203125 C-14.40215179 35.04871796 -14.07774109 34.27712341 -13.74349976 33.48214722 C-12.71004228 31.02716236 -11.66790966 28.57598242 -10.625 26.125 C-9.59094336 23.68047076 -8.55873607 21.23517506 -7.52792358 18.78927612 C-6.88795208 17.27230882 -6.24585862 15.75623424 -5.60122681 14.24124146 C-3.60811777 9.5362005 -1.76604383 4.79508884 0 0 Z " fill="#2193CF" transform="translate(127,41)"/>
<path d="M0 0 C0.66 -0.0103125 1.32 -0.020625 2 -0.03125 C4.88505246 0.73509206 6.03875389 2.2733327 8 4.5 C9.34936523 7.06420898 9.34936523 7.06420898 10.55859375 9.99609375 C11.01935303 11.0958252 11.4801123 12.19555664 11.95483398 13.32861328 C12.44411377 14.5195459 12.93339355 15.71047852 13.4375 16.9375 C14.24069582 18.85219845 15.04850663 20.76490801 15.85658264 22.67755127 C16.41413712 23.99741597 16.97071476 25.31769371 17.52635193 26.6383667 C30.93138306 58.49721988 46.10005342 89.70646527 62.91796875 119.90625 C67.06538977 127.37301136 71.0168565 134.94482595 75 142.5 C80.18434986 152.32860438 85.40317043 162.13343367 90.75 171.875 C92.11044297 174.36937448 93.46956926 176.86446054 94.828125 179.35986328 C95.57200562 180.71837526 96.3213762 182.07390686 97.078125 183.42529297 C100.78178913 190.04081605 103.09402843 194.84180097 102 202.5 C100.66796875 204.22265625 100.66796875 204.22265625 99 205.5 C89.23923085 206.62624259 80.85958413 200.32409578 72.625 195.8125 C53.68779001 185.54536972 34.96526899 176.81531155 13.9765625 171.4609375 C10.93646105 170.47948742 9.90224919 169.97197965 8 167.5 C7.69116211 165.37451172 7.69116211 165.37451172 7.77734375 162.9296875 C7.79603516 162.0325 7.81472656 161.1353125 7.83398438 160.2109375 C7.86814453 159.27507812 7.90230469 158.33921875 7.9375 157.375 C8.26002814 147.65798193 8.09819003 139.42764704 2 131.5 C-0.42267086 131.44832473 -0.42267086 131.44832473 -3 132.5 C-6.25493166 138.42862552 -7.10433999 144.01312432 -6.921875 150.7578125 C-6.89609375 151.71300781 -6.8703125 152.66820312 -6.84375 153.65234375 C-6.78098646 155.64247091 -6.70272751 157.63216674 -6.609375 159.62109375 C-6.45376685 166.80824527 -6.45376685 166.80824527 -9.0234375 170.0625 C-12.56873538 171.77466486 -16.03655317 172.64860763 -19.875 173.375 C-28.33312025 175.19623448 -36.12403667 177.94016307 -44 181.5 C-45.24861816 182.06267578 -45.24861816 182.06267578 -46.52246094 182.63671875 C-58.82332813 188.2372572 -70.69902061 194.31676276 -82.19921875 201.43579102 C-87.28480555 204.46386789 -91.14373022 206.14675544 -97.11181641 205.99731445 C-99.50000338 205.36830788 -100.46616325 204.40707426 -102 202.5 C-103.20604913 197.89429062 -102.61078591 193.80198341 -100.60546875 189.52734375 C-99.38689747 187.46984322 -98.13405987 185.43233525 -96.8515625 183.4140625 C-95.27783598 180.93726929 -93.94962504 178.51729056 -92.6875 175.875 C-87.62609715 165.51910339 -81.76570785 155.53846105 -76 145.5625 C-72.58347079 139.60564887 -69.36098476 133.56292945 -66.18554688 127.47460938 C-63.71250805 122.73798673 -61.20795748 118.02111673 -58.66015625 113.32421875 C-43.30267504 84.99360855 -28.82112351 56.50472744 -17 26.5 C-15.73003021 23.28644077 -14.45712666 20.07427667 -13.17211914 16.86669922 C-12.41737426 14.98054445 -11.67228104 13.09048414 -10.93920898 11.19580078 C-6.43494167 -0.10054596 -6.43494167 -0.10054596 0 0 Z M-1 16.5 C-1.43344727 17.5737085 -1.86689453 18.64741699 -2.31347656 19.75366211 C-3.93706591 23.77431859 -5.56271866 27.79413819 -7.18896484 31.8137207 C-7.88971486 33.5465694 -8.58992081 35.27963824 -9.28955078 37.01293945 C-10.30094328 39.51833615 -11.3143535 42.02290889 -12.328125 44.52734375 C-12.63558655 45.29022202 -12.9430481 46.05310028 -13.25982666 46.83909607 C-15.13998104 51.47722043 -17.13362929 56.03769996 -19.26629639 60.56593323 C-20.27540954 63.22598857 -20.07473272 64.88993482 -19 67.5 C-18.34 68.49 -17.68 69.48 -17 70.5 C-16.34 70.5 -15.68 70.5 -15 70.5 C-15 71.16 -15 71.82 -15 72.5 C-13.21895282 74.10178593 -11.37462722 75.63381926 -9.5 77.125 C-8.4790625 77.94226563 -7.458125 78.75953125 -6.40625 79.6015625 C-5.6121875 80.22804687 -4.818125 80.85453125 -4 81.5 C-6.25256041 80.4008228 -8.50198174 79.29589789 -10.75 78.1875 C-11.38421875 77.87876953 -12.0184375 77.57003906 -12.671875 77.25195312 C-15.39266942 75.90572672 -17.87980682 74.5951184 -20.265625 72.70703125 C-20.83796875 72.30871094 -21.4103125 71.91039062 -22 71.5 C-25.31567399 72.22407736 -25.31567399 72.22407736 -26.69140625 75.6484375 C-27.32354977 77.05352245 -27.94655526 78.46273896 -28.5625 79.875 C-32.99124245 89.63343761 -37.94260197 99.05559942 -43 108.5 C-44.18372291 110.7186811 -45.36730845 112.93743548 -46.55078125 115.15625 C-75.91094949 170.15689724 -75.91094949 170.15689724 -84.66967773 184.17163086 C-86.1653633 186.34248785 -86.1653633 186.34248785 -86 188.5 C-82.67674788 187.23483401 -79.62139849 185.80771667 -76.54296875 184.03125 C-59.23271409 174.2106636 -41.41970406 165.16888562 -21.75390625 161.31640625 C-20.39072266 160.91228516 -20.39072266 160.91228516 -19 160.5 C-17.93343335 157.30030006 -17.9809222 154.68440016 -18.06542969 151.34277344 C-18.37129712 138.99274908 -16.9942519 130.06513304 -8.375 120.625 C-3.8075622 117.74920583 -0.2621466 117.59865352 5 118.5 C11.93054912 121.63836187 15.0450896 127.73320517 17.6328125 134.578125 C19.36175008 139.92666465 19.33876688 144.98889715 19.1875 150.5625 C19.16719727 152.00399414 19.16719727 152.00399414 19.14648438 153.47460938 C19.11152306 155.81701752 19.06246104 158.15819156 19 160.5 C20.08812988 160.73698608 20.08812988 160.73698608 21.19824219 160.97875977 C43.94287448 166.05743139 65.00459319 176.83371437 85 188.5 C85.33 187.84 85.66 187.18 86 186.5 C84.33794677 182.45494656 82.13983071 178.65748317 80.0625 174.8125 C79.50498047 173.73548828 78.94746094 172.65847656 78.37304688 171.54882812 C74.76039627 164.83020424 71.15433897 160.01036654 65 155.5 C64.37407959 155.02651123 63.74815918 154.55302246 63.10327148 154.06518555 C61.31817557 152.74109545 59.5107591 151.45837764 57.6875 150.1875 C57.08099609 149.75888672 56.47449219 149.33027344 55.84960938 148.88867188 C53.2543246 147.05855357 50.64239171 145.26159447 48 143.5 C50.06266324 144.29124124 52.12512379 145.08301091 54.1875 145.875 C55.91033203 146.53628906 55.91033203 146.53628906 57.66796875 147.2109375 C60.45335994 148.28852143 63.22997721 149.3836443 66 150.5 C58.27163328 134.83869216 50.16662184 119.37599558 42.00439453 103.93725586 C37.64064816 95.67603341 33.34637991 87.38893151 29.22998047 79.00146484 C28.3239262 77.15878282 27.41343735 75.31827968 26.50048828 73.47900391 C17.23308926 54.78267661 8.86784694 35.82547321 1 16.5 C0.34 16.5 -0.32 16.5 -1 16.5 Z " fill="#FAFBFA" transform="translate(128,24.5)"/>
<path d="M0 0 C3 1 3 1 4.2109375 3.3359375 C4.59507812 4.33882812 4.97921875 5.34171875 5.375 6.375 C7.28827504 11.30786559 9.39125803 16.11344778 11.59472656 20.92138672 C13.07572317 24.16589111 14.53066862 27.42112902 15.98046875 30.6796875 C21.05879731 42.08072413 26.14736305 53.47421914 31.5 64.75 C31.88438232 65.5632373 32.26876465 66.37647461 32.66479492 67.21435547 C34.52385811 71.09834621 36.47419541 74.89186054 38.59375 78.640625 C40.04895974 81.21784354 41.28971469 83.67807218 42.45703125 86.41015625 C44.54622207 91.27083059 47.1188635 95.81651973 49.6875 100.4375 C53.25000235 106.90120186 56.75726488 113.36965636 60 120 C63.49061187 127.11141611 67.25661668 134.05572275 71.07275391 140.99707031 C74.04568287 146.40830224 76.99014233 151.83300842 79.89453125 157.28125 C80.22532181 157.90134949 80.55611237 158.52144897 80.89692688 159.16033936 C82.51735043 162.19923544 84.13470382 165.23969046 85.74829102 168.28222656 C88.93994707 174.27127273 92.21709349 180.14304388 95.85253906 185.87548828 C97.51540086 188.95425921 97.84912171 191.52979926 98 195 C96.68 195.33 95.36 195.66 94 196 C93.67 195.01 93.34 194.02 93 193 C91.01463373 192.29094062 89.01089078 191.63305821 87 191 C85.31302555 190.05918733 83.6276308 189.11450785 81.96875 188.125 C79.77387351 186.87078487 77.52798258 185.78323846 75.25 184.6875 C71.53628164 182.86979147 68.17093508 180.81919275 64.75 178.5 C59.52532203 175.09324393 54.22589467 173.07199964 48.32421875 171.11328125 C45.55659643 170.18640421 42.92579786 169.15598152 40.25 168 C34.71173192 165.71789959 28.94355278 164.25283926 23.15527344 162.75 C22.02847168 162.45222656 22.02847168 162.45222656 20.87890625 162.1484375 C20.2041626 161.97489746 19.52941895 161.80135742 18.83422852 161.62255859 C17 161 17 161 14 159 C13.72290039 156.9597168 13.72290039 156.9597168 13.84765625 154.44921875 C13.87843262 153.52874756 13.90920898 152.60827637 13.94091797 151.65991211 C13.98104004 150.67901611 14.02116211 149.69812012 14.0625 148.6875 C14.24568843 139.34413334 14.41391803 130.00094474 8.609375 122.109375 C6.23955456 119.83933647 4.13578379 119.02493988 0.9375 118.4375 C-2.70179764 119.13438678 -4.36207826 120.43535387 -7 123 C-12.580725 131.37108749 -12.72247505 142.26048057 -12 152 C-11.67 152.33 -11.34 152.66 -11 153 C-10.95907063 155.33297433 -10.95758277 157.66705225 -11 160 C-12.134375 160.25394531 -13.26875 160.50789062 -14.4375 160.76953125 C-15.95839966 161.11689722 -17.47922929 161.46456993 -19 161.8125 C-20.11568359 162.0609668 -20.11568359 162.0609668 -21.25390625 162.31445312 C-25.67554911 163.33335344 -29.85944368 164.59583902 -34.08349609 166.25219727 C-35.90971034 166.96476978 -37.76131536 167.61122403 -39.61328125 168.25390625 C-52.87596307 172.94556244 -65.29512192 179.19135896 -77 187 C-79.02491251 188.05367585 -81.06676643 189.07549541 -83.125 190.0625 C-86.03692307 191.45918575 -88.66006961 192.73998307 -91.2265625 194.703125 C-93 196 -93 196 -95.25 195.6875 C-96.11625 195.3471875 -96.11625 195.3471875 -97 195 C-96.32917224 191.59903633 -95.00999664 188.96704279 -93.31640625 185.953125 C-92.77516113 184.98052734 -92.23391602 184.00792969 -91.67626953 183.00585938 C-91.12310059 182.01392578 -90.56993164 181.02199219 -90 180 C-89.00562862 178.16334137 -88.01469758 176.32481565 -87.02734375 174.484375 C-81.70230938 164.59649687 -76.32052578 154.7519017 -70.75 145 C-62.49600213 130.51494354 -54.7563176 115.75540303 -47 101 C-46.40171387 99.86272461 -45.80342773 98.72544922 -45.18701172 97.55371094 C-42.17032599 91.81303553 -39.1686687 86.06493596 -36.19140625 80.30371094 C-35.4570405 78.88373652 -34.72052236 77.46486993 -33.98046875 76.04785156 C-28.96976505 66.4475565 -24.69545131 56.56155953 -20.4296875 46.61328125 C-18.81788012 42.85836942 -17.15389539 39.13370281 -15.4453125 35.421875 C-13.11499488 30.32595059 -11.03174703 25.15818868 -9 19.9375 C-6.31371553 13.11749181 -3.52498953 6.43988472 0 0 Z M0 12 C-0.43344727 13.0737085 -0.86689453 14.14741699 -1.31347656 15.25366211 C-2.93706591 19.27431859 -4.56271866 23.29413819 -6.18896484 27.3137207 C-6.88971486 29.0465694 -7.58992081 30.77963824 -8.28955078 32.51293945 C-9.30094328 35.01833615 -10.3143535 37.52290889 -11.328125 40.02734375 C-11.63558655 40.79022202 -11.9430481 41.55310028 -12.25982666 42.33909607 C-14.13998104 46.97722043 -16.13362929 51.53769996 -18.26629639 56.06593323 C-19.27540954 58.72598857 -19.07473272 60.38993482 -18 63 C-17.34 63.99 -16.68 64.98 -16 66 C-15.34 66 -14.68 66 -14 66 C-14 66.66 -14 67.32 -14 68 C-12.21895282 69.60178593 -10.37462722 71.13381926 -8.5 72.625 C-7.4790625 73.44226563 -6.458125 74.25953125 -5.40625 75.1015625 C-4.6121875 75.72804687 -3.818125 76.35453125 -3 77 C-5.25256041 75.9008228 -7.50198174 74.79589789 -9.75 73.6875 C-10.38421875 73.37876953 -11.0184375 73.07003906 -11.671875 72.75195312 C-14.39266942 71.40572672 -16.87980682 70.0951184 -19.265625 68.20703125 C-19.83796875 67.80871094 -20.4103125 67.41039062 -21 67 C-24.31567399 67.72407736 -24.31567399 67.72407736 -25.69140625 71.1484375 C-26.32354977 72.55352245 -26.94655526 73.96273896 -27.5625 75.375 C-31.99124245 85.13343761 -36.94260197 94.55559942 -42 104 C-43.18372291 106.2186811 -44.36730845 108.43743548 -45.55078125 110.65625 C-74.91094949 165.65689724 -74.91094949 165.65689724 -83.66967773 179.67163086 C-85.1653633 181.84248785 -85.1653633 181.84248785 -85 184 C-81.67674788 182.73483401 -78.62139849 181.30771667 -75.54296875 179.53125 C-58.23271409 169.7106636 -40.41970406 160.66888562 -20.75390625 156.81640625 C-19.39072266 156.41228516 -19.39072266 156.41228516 -18 156 C-16.93343335 152.80030006 -16.9809222 150.18440016 -17.06542969 146.84277344 C-17.37129712 134.49274908 -15.9942519 125.56513304 -7.375 116.125 C-2.8075622 113.24920583 0.7378534 113.09865352 6 114 C12.93054912 117.13836187 16.0450896 123.23320517 18.6328125 130.078125 C20.36175008 135.42666465 20.33876688 140.48889715 20.1875 146.0625 C20.16719727 147.50399414 20.16719727 147.50399414 20.14648438 148.97460938 C20.11152306 151.31701752 20.06246104 153.65819156 20 156 C21.08812988 156.23698608 21.08812988 156.23698608 22.19824219 156.47875977 C44.94287448 161.55743139 66.00459319 172.33371437 86 184 C86.33 183.34 86.66 182.68 87 182 C85.33794677 177.95494656 83.13983071 174.15748317 81.0625 170.3125 C80.50498047 169.23548828 79.94746094 168.15847656 79.37304688 167.04882812 C75.76039627 160.33020424 72.15433897 155.51036654 66 151 C65.37407959 150.52651123 64.74815918 150.05302246 64.10327148 149.56518555 C62.31817557 148.24109545 60.5107591 146.95837764 58.6875 145.6875 C58.08099609 145.25888672 57.47449219 144.83027344 56.84960938 144.38867188 C54.2543246 142.55855357 51.64239171 140.76159447 49 139 C51.06266324 139.79124124 53.12512379 140.58301091 55.1875 141.375 C56.91033203 142.03628906 56.91033203 142.03628906 58.66796875 142.7109375 C61.45335994 143.78852143 64.22997721 144.8836443 67 146 C59.27163328 130.33869216 51.16662184 114.87599558 43.00439453 99.43725586 C38.64064816 91.17603341 34.34637991 82.88893151 30.22998047 74.50146484 C29.3239262 72.65878282 28.41343735 70.81827968 27.50048828 68.97900391 C18.23308926 50.28267661 9.86784694 31.32547321 2 12 C1.34 12 0.68 12 0 12 Z " fill="#EAF8FA" transform="translate(127,29)"/>
<path d="M0 0 C3 1 3 1 4.2109375 3.3359375 C4.59507812 4.33882812 4.97921875 5.34171875 5.375 6.375 C7.28827504 11.30786559 9.39125803 16.11344778 11.59472656 20.92138672 C13.07572317 24.16589111 14.53066862 27.42112902 15.98046875 30.6796875 C21.05879731 42.08072413 26.14736305 53.47421914 31.5 64.75 C31.88438232 65.5632373 32.26876465 66.37647461 32.66479492 67.21435547 C34.52385811 71.09834621 36.47419541 74.89186054 38.59375 78.640625 C40.04895974 81.21784354 41.28971469 83.67807218 42.45703125 86.41015625 C44.54622207 91.27083059 47.1188635 95.81651973 49.6875 100.4375 C53.25000235 106.90120186 56.75726488 113.36965636 60 120 C63.49061187 127.11141611 67.25661668 134.05572275 71.07275391 140.99707031 C74.04568287 146.40830224 76.99014233 151.83300842 79.89453125 157.28125 C80.22532181 157.90134949 80.55611237 158.52144897 80.89692688 159.16033936 C82.51735043 162.19923544 84.13470382 165.23969046 85.74829102 168.28222656 C88.93994707 174.27127273 92.21709349 180.14304388 95.85253906 185.87548828 C97.51540086 188.95425921 97.84912171 191.52979926 98 195 C96.68 195.33 95.36 195.66 94 196 C93.67 195.01 93.34 194.02 93 193 C91.01463373 192.29094062 89.01089078 191.63305821 87 191 C85.31302555 190.05918733 83.6276308 189.11450785 81.96875 188.125 C79.77387351 186.87078487 77.52798258 185.78323846 75.25 184.6875 C71.53628164 182.86979147 68.17093508 180.81919275 64.75 178.5 C59.52532203 175.09324393 54.22589467 173.07199964 48.32421875 171.11328125 C45.55659643 170.18640421 42.92579786 169.15598152 40.25 168 C34.71173192 165.71789959 28.94355278 164.25283926 23.15527344 162.75 C22.02847168 162.45222656 22.02847168 162.45222656 20.87890625 162.1484375 C20.2041626 161.97489746 19.52941895 161.80135742 18.83422852 161.62255859 C17 161 17 161 14 159 C13.72290039 156.9597168 13.72290039 156.9597168 13.84765625 154.44921875 C13.87843262 153.52874756 13.90920898 152.60827637 13.94091797 151.65991211 C13.98104004 150.67901611 14.02116211 149.69812012 14.0625 148.6875 C14.24568843 139.34413334 14.41391803 130.00094474 8.609375 122.109375 C6.23955456 119.83933647 4.13578379 119.02493988 0.9375 118.4375 C-2.70179764 119.13438678 -4.36207826 120.43535387 -7 123 C-12.580725 131.37108749 -12.72247505 142.26048057 -12 152 C-11.67 152.33 -11.34 152.66 -11 153 C-10.95907063 155.33297433 -10.95758277 157.66705225 -11 160 C-12.134375 160.25394531 -13.26875 160.50789062 -14.4375 160.76953125 C-15.95839966 161.11689722 -17.47922929 161.46456993 -19 161.8125 C-20.11568359 162.0609668 -20.11568359 162.0609668 -21.25390625 162.31445312 C-25.67554911 163.33335344 -29.85944368 164.59583902 -34.08349609 166.25219727 C-35.90971034 166.96476978 -37.76131536 167.61122403 -39.61328125 168.25390625 C-52.87596307 172.94556244 -65.29512192 179.19135896 -77 187 C-79.02491251 188.05367585 -81.06676643 189.07549541 -83.125 190.0625 C-86.03692307 191.45918575 -88.66006961 192.73998307 -91.2265625 194.703125 C-93 196 -93 196 -95.25 195.6875 C-96.11625 195.3471875 -96.11625 195.3471875 -97 195 C-96.32917224 191.59903633 -95.00999664 188.96704279 -93.31640625 185.953125 C-92.77516113 184.98052734 -92.23391602 184.00792969 -91.67626953 183.00585938 C-91.12310059 182.01392578 -90.56993164 181.02199219 -90 180 C-89.00562862 178.16334137 -88.01469758 176.32481565 -87.02734375 174.484375 C-81.70230938 164.59649687 -76.32052578 154.7519017 -70.75 145 C-62.49600213 130.51494354 -54.7563176 115.75540303 -47 101 C-46.40171387 99.86272461 -45.80342773 98.72544922 -45.18701172 97.55371094 C-42.17032599 91.81303553 -39.1686687 86.06493596 -36.19140625 80.30371094 C-35.4570405 78.88373652 -34.72052236 77.46486993 -33.98046875 76.04785156 C-28.96976505 66.4475565 -24.69545131 56.56155953 -20.4296875 46.61328125 C-18.81788012 42.85836942 -17.15389539 39.13370281 -15.4453125 35.421875 C-13.11499488 30.32595059 -11.03174703 25.15818868 -9 19.9375 C-6.31371553 13.11749181 -3.52498953 6.43988472 0 0 Z M0 3 C-0.60534154 4.49952625 -1.2091975 5.99965222 -1.8125 7.5 C-2.14894531 8.3353125 -2.48539062 9.170625 -2.83203125 10.03125 C-3.68824979 12.20759145 -4.51482851 14.39565604 -5.32421875 16.58984375 C-7.39783894 22.14266166 -9.70981213 27.59636042 -12 33.0625 C-12.65742188 34.63741211 -12.65742188 34.63741211 -13.328125 36.24414062 C-13.75609375 37.26830078 -14.1840625 38.29246094 -14.625 39.34765625 C-15.03379395 40.32605469 -15.44258789 41.30445313 -15.86376953 42.3125 C-16.82050055 44.57543405 -17.80643571 46.82166328 -18.8046875 49.06640625 C-19.99907051 51.9977188 -20.18338492 53.88245628 -20 57 C-20.94941477 57.94941477 -21.93214622 58.86516566 -22.91625977 59.77856445 C-24.99422394 61.99384226 -26.08826055 63.79727811 -27.33984375 66.54296875 C-27.75637207 67.43943115 -28.17290039 68.33589355 -28.60205078 69.25952148 C-29.26309814 70.70887085 -29.26309814 70.70887085 -29.9375 72.1875 C-37.67806209 88.75420695 -46.04396556 105.00439644 -55.11206055 120.88500977 C-56.9872236 124.17276944 -58.77938556 127.47270981 -60.4375 130.875 C-66.03143195 142.33198777 -72.6119092 153.33453063 -78.87695312 164.43408203 C-81.52128351 169.12552149 -84.09267399 173.85345121 -86.6484375 178.59375 C-88.33809228 181.60192151 -90.18984246 184.4830366 -92.1171875 187.34375 C-93.23518609 189.12842769 -93.23518609 189.12842769 -93 192 C-87.27811354 190.43274099 -82.61580196 187.56643875 -77.5625 184.5625 C-57.17280719 172.72534999 -36.17734905 162.8537735 -13 158 C-13.15855469 156.99453125 -13.31710938 155.9890625 -13.48046875 154.953125 C-15.07867383 142.79234651 -14.52374522 132.01617959 -7.9375 121.4375 C-5.17747778 117.96521398 -3.62654852 117.07189901 0.8125 116.5625 C4.47600018 116.69669415 6.8881341 117.56993698 9.6171875 120.1796875 C17.34573975 130.35343142 18.09522818 142.63414167 16.4921875 154.87890625 C16.32976562 155.90886719 16.16734375 156.93882812 16 158 C17.90845703 158.49306641 17.90845703 158.49306641 19.85546875 158.99609375 C45.11593728 165.73335087 68.88771939 177.04241586 91.0324707 190.90942383 C92.91661566 192.16159832 92.91661566 192.16159832 95 192 C94.43324519 188.27186721 93.43785147 185.72642456 91.40625 182.5625 C87.0972748 175.6208335 83.34718893 168.38711692 79.53173828 161.16796875 C75.9495474 154.39858831 72.28481316 147.71752077 68.29589844 141.17724609 C66.4797203 138.12587522 64.92796815 135.00707603 63.375 131.8125 C60.05158619 125.05445253 56.61425746 118.36137526 53.125 111.6875 C52.61203369 110.70531494 52.09906738 109.72312988 51.57055664 108.71118164 C49.17065081 104.12329304 46.76025218 99.54147109 44.32421875 94.97265625 C39.74840064 86.37848904 35.37107482 77.73238088 31.25317383 68.90869141 C29.23349749 64.58368285 27.15928196 60.29956314 24.98486328 56.05029297 C20.24577945 46.78593623 16.15211141 37.28360354 12.12890625 27.68994141 C10.98807192 24.97157793 9.83883506 22.25689967 8.6875 19.54296875 C7.95805247 17.82043141 7.22887475 16.09777978 6.5 14.375 C6.16162109 13.57537842 5.82324219 12.77575684 5.47460938 11.9519043 C5.00764648 10.84262573 5.00764648 10.84262573 4.53125 9.7109375 C4.25861328 9.06431152 3.98597656 8.41768555 3.70507812 7.75146484 C3.07668431 6.19048935 2.5321206 4.59636179 2 3 C1.34 3 0.68 3 0 3 Z " fill="#DBDBDB" transform="translate(127,29)"/>
<path d="M0 0 C2.25 0.125 2.25 0.125 5 1 C12.1064881 9.12170069 11.20597247 19.59360572 10.74609375 29.7109375 C10.71322266 31.05671875 10.71322266 31.05671875 10.6796875 32.4296875 C10.62917236 33.63987549 10.62917236 33.63987549 10.57763672 34.87451172 C10.81907296 37.16482745 10.81907296 37.16482745 12.83666992 38.73022461 C15.63551929 40.37302063 18.27263799 40.96420378 21.4375 41.6875 C43.73692867 47.23666658 64.30707208 57.74569851 83.91064453 69.5090332 C84.65169434 69.95077881 85.39274414 70.39252441 86.15625 70.84765625 C86.80400391 71.23961182 87.45175781 71.63156738 88.11914062 72.03540039 C92.31579351 74.18765579 96.32574262 74.25968097 101 74 C103.3534187 72.03103677 103.3534187 72.03103677 103.625 68.375 C103.39058215 60.56518413 98.67563848 53.67821876 95 47 C93.24420922 43.80396822 91.48898543 40.60767002 89.73901367 37.40844727 C88.54550341 35.23314987 87.34263732 33.06295757 86.13012695 30.89819336 C85.5805835 29.90311768 85.03104004 28.90804199 84.46484375 27.8828125 C83.965896 26.98965332 83.46694824 26.09649414 82.95288086 25.17626953 C82.48120483 24.09901611 82.48120483 24.09901611 82 23 C82.33 22.34 82.66 21.68 83 21 C83.39832031 21.67546875 83.79664063 22.3509375 84.20703125 23.046875 C84.73683594 23.93890625 85.26664063 24.8309375 85.8125 25.75 C86.59560547 27.07257813 86.59560547 27.07257813 87.39453125 28.421875 C88.89715206 30.94712484 88.89715206 30.94712484 90.51171875 32.890625 C92.10286616 35.14579456 93.07441899 37.45655794 94.11621094 40.00195312 C95.83849417 43.89564538 98.02172653 47.55260284 100.125 51.25 C101.02578191 52.83721345 101.92431974 54.42570313 102.8203125 56.015625 C103.21492676 56.70946289 103.60954102 57.40330078 104.01611328 58.11816406 C106.53841001 62.94244774 106.81170175 68.19593942 105.3125 73.375 C103.36946966 75.78065661 102.03156438 76.29048493 99 77 C90.65300641 77.26498392 84.84104066 73.39533814 77.9296875 69.16894531 C61.50940771 59.22204505 44.34536634 50.9199532 25.8984375 45.46484375 C25.0420166 45.20896484 24.1855957 44.95308594 23.30322266 44.68945312 C21.6383583 44.19913163 19.96880622 43.72437654 18.29443359 43.26757812 C14.79452867 42.2407618 12.34099888 41.26976102 9.45703125 38.98828125 C7.2410482 34.44343665 7.69547815 30.22305181 7.9375 25.25 C8.31146856 17.0115285 7.72527921 10.45055842 4 3 C2.68 3 1.36 3 0 3 C-2.65894348 10.29167945 -3.36671359 16.65067447 -3.125 24.375 C-3.08155438 26.29938521 -3.04232196 28.22387131 -3.0078125 30.1484375 C-2.98348145 30.98552246 -2.95915039 31.82260742 -2.93408203 32.68505859 C-3.0006108 35.02145033 -3.14784503 36.82065154 -4 39 C-9.81448635 42.51264164 -15.84316544 44.2771103 -22.375 46 C-32.55125846 48.70771789 -41.97939731 52.30975361 -51.375 57.0625 C-52.05949219 57.40087891 -52.74398437 57.73925781 -53.44921875 58.08789062 C-56.90475327 59.82236766 -59.91450902 61.66016934 -63 64 C-64.85221995 64.94203164 -66.72915474 65.83666917 -68.625 66.6875 C-69.58664063 67.12449219 -70.54828125 67.56148438 -71.5390625 68.01171875 C-74 69 -74 69 -76 69 C-76 69.66 -76 70.32 -76 71 C-82.08362093 74.44188157 -87.83577855 77.5058706 -95 77 C-100.53846154 74.92307692 -100.53846154 74.92307692 -102 72 C-102.42484112 66.97106679 -102.35785972 62.5683532 -100 58 C-99.34 58 -98.68 58 -98 58 C-98.16371094 58.53109375 -98.32742187 59.0621875 -98.49609375 59.609375 C-99.11356377 62.53876764 -99.09501925 65.25822936 -99.0625 68.25 C-99.04896484 69.86648437 -99.04896484 69.86648437 -99.03515625 71.515625 C-99.02355469 72.33546875 -99.01195312 73.1553125 -99 74 C-89.83037561 75.23926458 -83.67012019 72.3414164 -75.97671509 67.73260498 C-72.81152294 65.83934256 -69.59902983 64.0287616 -66.39453125 62.203125 C-65.75982407 61.83855194 -65.12511688 61.47397888 -64.47117615 61.09835815 C-48.39042586 51.88665433 -30.52463328 43.01675178 -11.9453125 40.51953125 C-9.36480493 39.83035955 -7.95543493 38.81989231 -6 37 C-5.4824516 34.73722146 -5.4824516 34.73722146 -5.6796875 32.2109375 C-5.70160156 31.26863281 -5.72351563 30.32632813 -5.74609375 29.35546875 C-5.80990234 27.88013672 -5.80990234 27.88013672 -5.875 26.375 C-6.23410881 16.46625684 -6.22827557 8.09675824 0 0 Z " fill="#DEDEDD" transform="translate(126,155)"/>
<path d="M0 0 C6.82092691 3.45256794 9.5243846 10.13249786 12 17 C14.20509723 24.97227462 13.81923215 34.24711159 11 42 C11.62003906 42.08636719 12.24007812 42.17273438 12.87890625 42.26171875 C38.54605038 46.33408951 68.50535389 60.22762258 89 76 C89.33 76.66 89.66 77.32 90 78 C85.38429153 76.69813351 81.54131872 74.71496208 77.4140625 72.34765625 C75.02126172 71.01186941 72.59420388 69.81256949 70.125 68.625 C66.45384363 66.82895734 63.13237796 64.7912883 59.75 62.5 C54.52532203 59.09324393 49.22589467 57.07199964 43.32421875 55.11328125 C40.55659643 54.18640421 37.92579786 53.15598152 35.25 52 C29.71173192 49.71789959 23.94355278 48.25283926 18.15527344 46.75 C17.02847168 46.45222656 17.02847168 46.45222656 15.87890625 46.1484375 C14.86679077 45.88812744 14.86679077 45.88812744 13.83422852 45.62255859 C12 45 12 45 9 43 C8.72290039 40.9597168 8.72290039 40.9597168 8.84765625 38.44921875 C8.87843262 37.52874756 8.90920898 36.60827637 8.94091797 35.65991211 C8.98104004 34.67901611 9.02116211 33.69812012 9.0625 32.6875 C9.24568843 23.34413334 9.41391803 14.00094474 3.609375 6.109375 C1.23955456 3.83933647 -0.86421621 3.02493988 -4.0625 2.4375 C-7.70179764 3.13438678 -9.36207826 4.43535387 -12 7 C-17.580725 15.37108749 -17.72247505 26.26048057 -17 36 C-16.67 36.33 -16.34 36.66 -16 37 C-15.95907063 39.33297433 -15.95758277 41.66705225 -16 44 C-17.134375 44.25394531 -18.26875 44.50789063 -19.4375 44.76953125 C-20.95839966 45.11689722 -22.47922929 45.46456993 -24 45.8125 C-24.74378906 45.97814453 -25.48757812 46.14378906 -26.25390625 46.31445312 C-30.67554911 47.33335344 -34.85944368 48.59583902 -39.08349609 50.25219727 C-40.90971034 50.96476978 -42.76131536 51.61122403 -44.61328125 52.25390625 C-57.86703299 56.94240343 -70.31552278 63.17269136 -82 71 C-84.02241967 72.09869364 -86.06429296 73.16241683 -88.125 74.1875 C-89.13820313 74.69667969 -90.15140625 75.20585937 -91.1953125 75.73046875 C-93.50080882 76.77404299 -95.53118576 77.5097809 -98 78 C-95.32904105 75.15684401 -92.77244193 73.0814146 -89.38671875 71.15234375 C-88.48034668 70.63494629 -87.57397461 70.11754883 -86.64013672 69.58447266 C-85.17858154 68.76922119 -85.17858154 68.76922119 -83.6875 67.9375 C-82.66930176 67.36821777 -81.65110352 66.79893555 -80.60205078 66.21240234 C-66.39651966 58.36168991 -52.02648991 51.08210497 -36.625 45.875 C-35.78759277 45.59156738 -34.95018555 45.30813477 -34.08740234 45.01611328 C-28.71346068 43.2998736 -23.62276413 42.46199064 -18 42 C-18.32226562 40.99453125 -18.64453125 39.9890625 -18.9765625 38.953125 C-22.09866209 27.95670345 -20.28349048 17.02330716 -14.984375 7.09765625 C-11.29620939 1.11170492 -7.14955576 -1.57986438 0 0 Z " fill="#D2D2D2" transform="translate(132,145)"/>
<path d="M0 0 C7.61195412 5.43711008 10.40517303 15.9177808 13.55859375 24.3203125 C16.4346744 31.66250213 19.73170652 38.82569724 23 46 C23.45294434 46.99483398 23.45294434 46.99483398 23.91503906 48.00976562 C28.07364885 57.10759576 32.48493788 66.06790831 36.99267578 74.99707031 C37.98022581 76.96068167 38.95856906 78.92858061 39.93359375 80.8984375 C43.98300047 89.06979898 48.16511832 97.16156668 52.43359375 105.22070312 C54.63945206 109.39147215 56.80141414 113.57384655 58.875 117.8125 C63.21161344 126.59852897 68.04032584 135.13637579 72.76660156 143.71679688 C73.17362305 144.47025391 73.58064453 145.22371094 74 146 C74.60666504 147.04510742 74.60666504 147.04510742 75.22558594 148.11132812 C76 150 76 150 75 153 C70.31557734 144.34285739 65.65217821 135.67450034 61 127 C60.64732056 126.34273926 60.29464111 125.68547852 59.93127441 125.00830078 C42.34800402 92.22681548 25.50051601 59.27306429 11 25 C10.13179112 22.96342198 9.26332427 20.9269539 8.39453125 18.890625 C3.30235604 6.90706812 3.30235604 6.90706812 2 3 C0.39667209 2.91878076 -1.20784026 2.86070866 -2.8125 2.8125 C-3.70582031 2.77769531 -4.59914063 2.74289063 -5.51953125 2.70703125 C-8.55218156 3.06521829 -9.07520981 3.6999523 -11 6 C-12.1219962 8.10141516 -12.1219962 8.10141516 -13.04296875 10.44921875 C-13.39423828 11.29677734 -13.74550781 12.14433594 -14.10742188 13.01757812 C-14.46384766 13.89865234 -14.82027344 14.77972656 -15.1875 15.6875 C-15.73954102 17.02651367 -15.73954102 17.02651367 -16.30273438 18.39257812 C-17.20854275 20.59239846 -18.10733011 22.79482294 -19 25 C-20.71626625 19.96934489 -18.46277869 16.54892697 -16.375 11.9375 C-16.03082031 11.12216797 -15.68664062 10.30683594 -15.33203125 9.46679688 C-12.08611027 2.17844663 -8.46093369 -1.20870481 0 0 Z " fill="#DDDDDD" transform="translate(132,23)"/>
<path d="M0 0 C1.19649967 3.589499 0.75289386 4.27071213 -0.66796875 7.6640625 C-1.06024658 8.60813965 -1.45252441 9.5522168 -1.85668945 10.52490234 C-2.29585693 11.54793457 -2.73502441 12.5709668 -3.1875 13.625 C-3.64020264 14.69314941 -4.09290527 15.76129883 -4.55932617 16.86181641 C-9.66088918 28.75821978 -15.27413572 40.39428375 -21 52 C-21.53028809 53.08104004 -22.06057617 54.16208008 -22.60693359 55.27587891 C-29.19732889 68.69650042 -36.02749815 81.94839347 -43.265625 95.03125 C-45.01947387 98.20138688 -46.74153158 101.38404244 -48.421875 104.59375 C-48.97041138 105.64042847 -48.97041138 105.64042847 -49.5300293 106.70825195 C-50.48371213 108.53646352 -51.43157346 110.3677087 -52.37890625 112.19921875 C-53.75649621 114.57929585 -54.93460252 116.2233815 -57 118 C-56.41672184 114.31948221 -55.40905701 111.54343066 -53.59375 108.296875 C-53.10124756 107.40677734 -52.60874512 106.51667969 -52.10131836 105.59960938 C-51.5728833 104.65923828 -51.04444824 103.71886719 -50.5 102.75 C-49.40669418 100.7765167 -48.31425578 98.80255262 -47.22265625 96.828125 C-46.67883301 95.84779297 -46.13500977 94.86746094 -45.57470703 93.85742188 C-43.31758197 89.76170223 -41.11963939 85.63604482 -38.9375 81.5 C-38.58042969 80.82549805 -38.22335938 80.15099609 -37.85546875 79.45605469 C-36.37302283 76.64653458 -34.91476521 73.82864255 -33.5 70.984375 C-32.10379561 68.20651001 -30.63370841 65.4778578 -29.14550781 62.74853516 C-23.01478993 51.43517704 -17.6938724 39.75816545 -12.38183594 28.04345703 C-11.46840625 26.03165235 -10.54986948 24.02215783 -9.62597656 22.01513672 C-7.32982215 17.01737312 -5.16342381 12.03130442 -3.25 6.875 C-1.10486891 1.10486891 -1.10486891 1.10486891 0 0 Z " fill="#DEDDDD" transform="translate(111,48)"/>
<path d="M0 0 C0 0.66 0 1.32 0 2 C-1.0621875 2.25394531 -2.124375 2.50789062 -3.21875 2.76953125 C-4.64589635 3.11692872 -6.07297615 3.46459968 -7.5 3.8125 C-8.54414063 4.0609668 -8.54414063 4.0609668 -9.609375 4.31445312 C-13.88725101 5.36411715 -17.96187889 6.6539462 -22.06591797 8.25219727 C-23.899459 8.96112634 -25.7561094 9.60941742 -27.61328125 10.25390625 C-40.86703299 14.94240343 -53.31552278 21.17269136 -65 29 C-67.02241967 30.09869364 -69.06429296 31.16241683 -71.125 32.1875 C-72.13820313 32.69667969 -73.15140625 33.20585937 -74.1953125 33.73046875 C-76.50080882 34.77404299 -78.53118576 35.5097809 -81 36 C-78.32904105 33.15684401 -75.77244193 31.0814146 -72.38671875 29.15234375 C-71.48034668 28.63494629 -70.57397461 28.11754883 -69.64013672 27.58447266 C-68.6657666 27.04097168 -67.69139648 26.4974707 -66.6875 25.9375 C-65.66930176 25.36821777 -64.65110352 24.79893555 -63.60205078 24.21240234 C-19.00900868 -0.43202292 -19.00900868 -0.43202292 0 0 Z " fill="#B5B4B3" transform="translate(115,187)"/>
<path d="M0 0 C18.51300581 -0.75950793 39.02992794 11.30705556 55 19.5625 C56.02601318 20.09230469 57.05202637 20.62210938 58.10913086 21.16796875 C77.06919297 31.13838593 77.06919297 31.13838593 79 35 C74.38429153 33.69813351 70.54131872 31.71496208 66.4140625 29.34765625 C64.02126172 28.01186941 61.59420388 26.81256949 59.125 25.625 C55.45384363 23.82895734 52.13237796 21.7912883 48.75 19.5 C43.52532203 16.09324393 38.22589467 14.07199964 32.32421875 12.11328125 C29.55659643 11.18640421 26.92579786 10.15598152 24.25 9 C18.6636481 6.69034863 12.82810085 5.23713132 6.97949219 3.75 C4.97053578 3.22362095 2.9826481 2.61813207 1 2 C0.67 1.34 0.34 0.68 0 0 Z " fill="#B0B1B0" transform="translate(143,188)"/>
<path d="M0 0 C0.33 0 0.66 0 1 0 C1 4.29 1 8.58 1 13 C3.97 13.495 3.97 13.495 7 14 C9.10940772 14.47740593 11.21385723 14.97729943 13.3125 15.5 C14.88451172 15.88671875 14.88451172 15.88671875 16.48828125 16.28125 C19 17 19 17 20 18 C22.32817964 18.36760731 24.6618385 18.70241581 27 19 C27 19.66 27 20.32 27 21 C28.2065625 21.53109375 29.413125 22.0621875 30.65625 22.609375 C32.27087811 23.32281533 33.88545892 24.03636272 35.5 24.75 C36.68722656 25.27207031 36.68722656 25.27207031 37.8984375 25.8046875 C43.00866636 28.06659208 48.01982255 30.46422158 53 33 C52.505 33.99 52.505 33.99 52 35 C48.13728503 33.5457109 44.47160897 31.79082437 40.76928711 29.97875977 C27.50183586 23.51617033 13.70678689 17.1698538 -1 15 C-0.67 10.05 -0.34 5.1 0 0 Z " fill="#3B94C0" transform="translate(148,170)"/>
<path d="M0 0 C6.43370907 7.89591568 6.56257065 17.2008043 6 27 C5.52250393 29.47882743 4.86521839 31.62064943 4 34 C4.99 34.33 5.98 34.66 7 35 C5.02 35.495 5.02 35.495 3 36 C1.8165962 31.4211376 2.00290499 27.11682801 2.125 22.4375 C2.23669903 15.61137127 1.58788961 9.66476235 -0.44140625 3.08984375 C-0.62574219 2.40019531 -0.81007812 1.71054688 -1 1 C-0.67 0.67 -0.34 0.34 0 0 Z " fill="#D6D6D6" transform="translate(139,153)"/>
<path d="M0 0 C-3.60198136 1.98316344 -7.20694631 3.96083989 -10.8125 5.9375 C-11.83666016 6.50146484 -12.86082031 7.06542969 -13.91601562 7.64648438 C-14.89892578 8.18466797 -15.88183594 8.72285156 -16.89453125 9.27734375 C-17.80050049 9.77484131 -18.70646973 10.27233887 -19.63989258 10.78491211 C-22 12 -22 12 -25 13 C-23.43358249 8.69235185 -21.31663844 4.93828536 -19 1 C-18.67 2.32 -18.34 3.64 -18 5 C-16.68 5.33 -15.36 5.66 -14 6 C-14.33 4.68 -14.66 3.36 -15 2 C-14.34 2 -13.68 2 -13 2 C-13 2.66 -13 3.32 -13 4 C-11.01508358 3.73323796 -11.01508358 3.73323796 -9 3 C-8.67 2.01 -8.34 1.02 -8 0 C-4.71303767 -0.79953138 -3.28976808 -1.09658936 0 0 Z " fill="#3C94C1" transform="translate(67,200)"/>
<path d="M0 0 C2.33364352 2.92903058 4.04960836 5.88568203 5.6875 9.25 C6.34298828 10.58804688 6.34298828 10.58804688 7.01171875 11.953125 C7.50091797 12.96632812 7.50091797 12.96632812 8 14 C6.97132813 13.58234375 6.97132813 13.58234375 5.921875 13.15625 C3.85860604 12.33976924 1.78441404 11.55063647 -0.296875 10.78125 C-1.43640625 10.3584375 -2.5759375 9.935625 -3.75 9.5 C-4.89984375 9.0771875 -6.0496875 8.654375 -7.234375 8.21875 C-10 7 -10 7 -11 5 C-7.37 5 -3.74 5 0 5 C0 3.35 0 1.7 0 0 Z " fill="#2E94C8" transform="translate(186,161)"/>
<path d="M0 0 C0.66 0 1.32 0 2 0 C3.55205639 3.62794611 5.10019506 7.25753632 6.64477539 10.88867188 C7.42844607 12.72874125 8.21518206 14.56750414 9.00195312 16.40625 C9.74155273 18.14648438 9.74155273 18.14648438 10.49609375 19.921875 C10.95169678 20.99018555 11.4072998 22.05849609 11.87670898 23.15917969 C12.78279797 25.45069271 13.49042767 27.59664396 14 30 C12.35 29.67 10.7 29.34 9 29 C9.0928125 27.6696875 9.0928125 27.6696875 9.1875 26.3125 C8.9768144 22.59038774 7.91632798 21.11403298 6 18 C5.8125 15.1875 5.8125 15.1875 6 13 C5.34 13 4.68 13 4 13 C3.71125 11.865625 3.4225 10.73125 3.125 9.5625 C2.75375 8.386875 2.3825 7.21125 2 6 C1.34 5.67 0.68 5.34 0 5 C0 5.66 0 6.32 0 7 C-0.66 7 -1.32 7 -2 7 C-1.34 4.69 -0.68 2.38 0 0 Z " fill="#3A94C2" transform="translate(127,41)"/>
<path d="M0 0 C2.64535665 1.71873455 4.82838132 3.71980039 7 6 C6.67 6.99 6.34 7.98 6 9 C5.34644531 8.3503125 5.34644531 8.3503125 4.6796875 7.6875 C0.80951323 4.06561988 0.80951323 4.06561988 -4.125 2.375 C-8.39982424 3.30430962 -10.79209303 5.16256496 -13.19921875 8.82421875 C-14.18099641 10.52252185 -15.09603584 12.25903199 -16 14 C-17 11 -17 11 -16.14453125 9.0625 C-11.96496464 2.59091299 -8.520859 -2.03931505 0 0 Z " fill="#B1B3B1" transform="translate(132,145)"/>
<path d="M0 0 C0.33 0.99 0.66 1.98 1 3 C1.66 3.33 2.32 3.66 3 4 C4.10546875 5.70703125 4.10546875 5.70703125 5.1875 7.8125 C5.55230469 8.49957031 5.91710937 9.18664062 6.29296875 9.89453125 C7.12087895 12.35996549 6.85276722 13.58292094 6 16 C5.69707031 15.32453125 5.39414063 14.6490625 5.08203125 13.953125 C2.30518421 8.04057683 0.02184708 4.01092354 -6 1 C-11.67983816 0.47725383 -16.35705072 0.28564057 -21 4 C-21 3.01 -21 2.02 -21 1 C-13.99712196 -3.20172682 -7.38249711 -2.86260092 0 0 Z " fill="#4B9EC7" transform="translate(139,142)"/>
<path d="M0 0 C2.14909962 2.76854598 4.01778828 5.57834526 5.75 8.625 C6.19859375 9.40101563 6.6471875 10.17703125 7.109375 10.9765625 C7.40328125 11.64429688 7.6971875 12.31203125 8 13 C7.67 13.66 7.34 14.32 7 15 C2.71 12.69 -1.58 10.38 -6 8 C-5.34 7.67 -4.68 7.34 -4 7 C-3.67 6.34 -3.34 5.68 -3 5 C-1.68 5.66 -0.36 6.32 1 7 C0.67 4.69 0.34 2.38 0 0 Z " fill="#3B94C2" transform="translate(206,198)"/>
<path d="M0 0 C0.33 0 0.66 0 1 0 C0.67 2.31 0.34 4.62 0 7 C1.65 7 3.3 7 5 7 C2.20803989 10.28465896 -1.23196817 12.01321958 -5 14 C-5.66 14 -6.32 14 -7 14 C-6.33694413 10.45265111 -4.86707876 7.81990835 -3 4.75 C-2.46375 3.85796875 -1.9275 2.9659375 -1.375 2.046875 C-0.92125 1.37140625 -0.4675 0.6959375 0 0 Z " fill="#F8F8F7" transform="translate(41,207)"/>
<path d="M0 0 C8.66736307 2.43294402 16.17171506 6.65782877 24 11 C22.32421875 11.66796875 22.32421875 11.66796875 20 12 C17.51953125 10.92578125 17.51953125 10.92578125 14.8125 9.3125 C9.98818347 6.53073684 5.1315864 4.15399923 0 2 C0 1.34 0 0.68 0 0 Z " fill="#B0AFAD" transform="translate(174,197)"/>
<path d="M0 0 C0.68149127 2.30003302 1.01422918 3.88863298 0.70703125 6.29296875 C1.13072212 10.20787241 3.44083589 12.058156 6.1875 14.625 C6.67025391 15.10195312 7.15300781 15.57890625 7.65039062 16.0703125 C10.54693544 18.86965782 13.46569245 21.07454543 17 23 C16.67 23.66 16.34 24.32 16 25 C13.32610077 23.0095043 10.66142477 21.00713735 8 19 C7.01 18.2575 6.02 17.515 5 16.75 C4.01 15.88375 4.01 15.88375 3 15 C3 14.34 3 13.68 3 13 C2.01 12.67 1.02 12.34 0 12 C-2 9 -2 9 -1.6875 6 C-1 3 -1 3 0 0 Z " fill="#3C93BE" transform="translate(110,82)"/>
<path d="M0 0 C1.59598743 4.92511746 1.02017224 10.06560347 0.9375 15.17578125 C0.99864742 18.91723881 1.39042573 22.31874286 2 26 C0.68 26 -0.64 26 -2 26 C-2.05799124 22.22923111 -2.09359306 18.45857666 -2.125 14.6875 C-2.14175781 13.61564453 -2.15851563 12.54378906 -2.17578125 11.43945312 C-2.18222656 10.41142578 -2.18867187 9.38339844 -2.1953125 8.32421875 C-2.20578613 7.37635498 -2.21625977 6.42849121 -2.22705078 5.4519043 C-2 3 -2 3 0 0 Z " fill="#F9FDFB" transform="translate(112,161)"/>
<path d="M0 0 C4.10997612 0.68628119 7.8015634 1.94427237 11.6875 3.4375 C13.39486328 4.08525391 13.39486328 4.08525391 15.13671875 4.74609375 C18 6 18 6 20 8 C17.84765625 9.19921875 17.84765625 9.19921875 15 10 C12.24609375 8.76953125 12.24609375 8.76953125 9.4375 6.8125 C8.50808594 6.17957031 7.57867187 5.54664063 6.62109375 4.89453125 C4.39551041 3.28587563 2.18627793 1.66157123 0 0 Z " fill="#C4EFFA" transform="translate(171,166)"/>
<path d="M0 0 C0.33 0 0.66 0 1 0 C1 4.29 1 8.58 1 13 C3.97 13.495 3.97 13.495 7 14 C8.63664797 14.48298633 10.26361502 15.00095675 11.875 15.5625 C12.65617188 15.83191406 13.43734375 16.10132813 14.2421875 16.37890625 C14.82226562 16.58386719 15.40234375 16.78882813 16 17 C16 17.66 16 18.32 16 19 C7.585 17.02 7.585 17.02 -1 15 C-0.67 10.05 -0.34 5.1 0 0 Z " fill="#4798C1" transform="translate(148,170)"/>
<path d="M0 0 C0.66 0.99 1.32 1.98 2 3 C1.34 3 0.68 3 0 3 C0.33 3.99 0.66 4.98 1 6 C-0.33333333 7.66666667 -1.66666667 9.33333333 -3 11 C-4.17283483 13.62910475 -5.07397714 16.26823257 -6 19 C-6.66 19 -7.32 19 -8 19 C-8 19.66 -8 20.32 -8 21 C-8.66 21 -9.32 21 -10 21 C-8.51991304 15.99886406 -6.3681664 11.67084403 -3.875 7.125 C-3.50246094 6.43664062 -3.12992187 5.74828125 -2.74609375 5.0390625 C-1.83500474 3.35705202 -0.91809685 1.67819564 0 0 Z " fill="#3D96C3" transform="translate(89,125)"/>
<path d="M0 0 C4.04301175 1.48518799 7.61146256 3.42877998 11.3125 5.625 C12.38113281 6.25664063 13.44976562 6.88828125 14.55078125 7.5390625 C15.76314453 8.26222656 15.76314453 8.26222656 17 9 C16.34 9.66 15.68 10.32 15 11 C11.52906117 9.78048095 9.56429023 8.56429023 7 6 C4.40084462 4.80972016 4.40084462 4.80972016 2 4 C1.566875 4.433125 1.13375 4.86625 0.6875 5.3125 C-0.875 6.875 -2.4375 8.4375 -4 10 C-3.52449439 8.51965236 -3.04448784 7.04074979 -2.5625 5.5625 C-2.29566406 4.73878906 -2.02882813 3.91507812 -1.75390625 3.06640625 C-1 1 -1 1 0 0 Z " fill="#3D94BF" transform="translate(104,96)"/>
<path d="M0 0 C2.25145318 2.86910848 4.10715572 5.77606385 5.8125 9 C6.50279297 10.2684375 6.50279297 10.2684375 7.20703125 11.5625 C8 14 8 14 7.13671875 16.3125 C6.76160156 16.869375 6.38648438 17.42625 6 18 C5.82984375 17.45730469 5.6596875 16.91460937 5.484375 16.35546875 C3.57974595 10.69466529 3.57974595 10.69466529 -1 7 C-0.67 4.69 -0.34 2.38 0 0 Z " fill="#3997C6" transform="translate(148,87)"/>
<path d="M0 0 C1.051875 0.495 1.051875 0.495 2.125 1 C4.99463305 2.18450576 4.99463305 2.18450576 8.1875 1.9375 C9.115625 1.958125 10.04375 1.97875 11 2 C11.99 3.485 11.99 3.485 13 5 C11.41870971 5.22331199 9.83478911 5.42804644 8.25 5.625 C6.92742187 5.79902344 6.92742187 5.79902344 5.578125 5.9765625 C2.77140122 6.00207817 1.36615134 5.44843844 -1 4 C-0.67 2.68 -0.34 1.36 0 0 Z " fill="#2F9AD3" transform="translate(115,104)"/>
<path d="M0 0 C3.80635497 3.20760251 7.54563567 6.40746109 11 10 C5.03347646 8.42986223 0.17090975 5.24970218 -5 2 C-4.34 1.67 -3.68 1.34 -3 1 C-2.01 1.33 -1.02 1.66 0 2 C0 1.34 0 0.68 0 0 Z " fill="#CEF4FC" transform="translate(114,97)"/>
<path d="M0 0 C0.33 0.99 0.66 1.98 1 3 C1.66 3.33 2.32 3.66 3 4 C2.34 5.32 1.68 6.64 1 8 C0.67 7.01 0.34 6.02 0 5 C-3.36591427 7.72478774 -4.44226276 11.06856792 -6 15 C-6.66 14.67 -7.32 14.34 -8 14 C-7.54917531 12.53932801 -7.08906463 11.08151968 -6.625 9.625 C-6.36976562 8.81289062 -6.11453125 8.00078125 -5.8515625 7.1640625 C-5 5 -5 5 -3 3 C-2.67 3.33 -2.34 3.66 -2 4 C-1.34 2.68 -0.68 1.36 0 0 Z " fill="#DDE2E5" transform="translate(106,83)"/>
<path d="M0 0 C-2.56538479 2.56538479 -5.06045896 3.37357879 -8.4375 4.6875 C-9.59121094 5.14511719 -10.74492188 5.60273438 -11.93359375 6.07421875 C-15 7 -15 7 -18 6 C-17.34 5.67 -16.68 5.34 -16 5 C-16.66 4.34 -17.32 3.68 -18 3 C-14.67465243 1.89155081 -12.37817425 2.15545644 -9 3 C-9 2.34 -9 1.68 -9 1 C-5.8035914 -0.06546953 -3.34252724 -0.07427838 0 0 Z " fill="#3490C1" transform="translate(98,186)"/>
<path d="M0 0 C1.54500605 3.09001209 0.58389936 5.67177365 0 9 C-1.13304992 12.39914975 -2.12518475 13.05254451 -5 15 C-4.56826496 8.84777564 -3.34594658 5.18082051 0 0 Z " fill="#DCF3F9" transform="translate(115,149)"/>
<path d="M0 0 C6.90352555 -0.51137226 11.74827614 1.13035626 18 4 C18 4.99 18 5.98 18 7 C12 5 6 3 0 1 C0 0.67 0 0.34 0 0 Z " fill="#BBB9B7" transform="translate(156,192)"/>
<path d="M0 0 C5.02418033 0.49640105 8.10656798 2.03289713 12.25 4.875 C13.28640625 5.57367188 14.3228125 6.27234375 15.390625 6.9921875 C18 9 18 9 20 12 C15.33138019 10.39516194 10.90741833 8.02509806 7 5 C7 4.34 7 3.68 7 3 C4.69 2.34 2.38 1.68 0 1 C0 0.67 0 0.34 0 0 Z " fill="#3992BC" transform="translate(171,168)"/>
<path d="M0 0 C2.33364352 2.92903058 4.04960836 5.88568203 5.6875 9.25 C6.12449219 10.14203125 6.56148437 11.0340625 7.01171875 11.953125 C7.33785156 12.62859375 7.66398438 13.3040625 8 14 C4.55905814 12.68753462 1.86459118 11.33411133 -1 9 C0.32 9 1.64 9 3 9 C3 8.34 3 7.68 3 7 C2.34 7 1.68 7 1 7 C0.67 4.69 0.34 2.38 0 0 Z " fill="#4795BF" transform="translate(186,161)"/>
<path d="M0 0 C2 0 2 0 4.125 1.5 C6.83547375 5.11396501 6.29634575 7.55481374 6 12 C4.35 11.67 2.7 11.34 1 11 C1.33 10.34 1.66 9.68 2 9 C2.66 9 3.32 9 4 9 C3.34 7.88625 2.68 6.7725 2 5.625 C0 2.25 0 2.25 0 0 Z " fill="#DFF6FA" transform="translate(209,202)"/>
<path d="M0 0 C1.32 0 2.64 0 4 0 C4.33 0.99 4.66 1.98 5 3 C5.66 3.33 6.32 3.66 7 4 C8.10546875 5.70703125 8.10546875 5.70703125 9.1875 7.8125 C9.55230469 8.49957031 9.91710937 9.18664062 10.29296875 9.89453125 C11.12087895 12.35996549 10.85276722 13.58292094 10 16 C9.69707031 15.32453125 9.39414063 14.6490625 9.08203125 13.953125 C6.66351059 8.8035364 4.80073428 5.29193208 0 2 C0 1.34 0 0.68 0 0 Z " fill="#3D91BB" transform="translate(135,142)"/>
<path d="M0 0 C6.15234375 0.5859375 6.15234375 0.5859375 8 1 C8.33 1.66 8.66 2.32 9 3 C9.825 3.33 10.65 3.66 11.5 4 C14 5 14 5 15 7 C4.44191344 3.92482916 4.44191344 3.92482916 0 2 C0 1.34 0 0.68 0 0 Z " fill="#F1F4F5" transform="translate(166,192)"/>
<path d="M0 0 C1.34084698 3.64914053 0.64228567 5.61954689 -0.875 9.125 C-1.24367188 9.99382812 -1.61234375 10.86265625 -1.9921875 11.7578125 C-2.63356127 13.18474484 -3.30035778 14.60071555 -4 16 C-4.66 16 -5.32 16 -6 16 C-4.25192871 10.53262809 -2.34205919 5.24175152 0 0 Z " fill="#4598C4" transform="translate(117,66)"/>
<path d="M0 0 C7 7 7 7 7 12 C5.68 11.67 4.36 11.34 3 11 C2.01 7.37 1.02 3.74 0 0 Z " fill="#3D95C5" transform="translate(179,149)"/>
<path d="M0 0 C1.1171875 1.703125 1.1171875 1.703125 2 4 C1.3203125 6.359375 1.3203125 6.359375 0.125 8.75 C-0.26429687 9.54921875 -0.65359375 10.3484375 -1.0546875 11.171875 C-1.36664063 11.77515625 -1.67859375 12.3784375 -2 13 C-3.18771723 9.57056481 -2.80226223 7.62215325 -1.5625 4.25 C-1.27503906 3.45078125 -0.98757812 2.6515625 -0.69140625 1.828125 C-0.46324219 1.22484375 -0.23507813 0.6215625 0 0 Z " fill="#DFF4F9" transform="translate(54,183)"/>
<path d="M0 0 C2.15178156 2.76387192 3.98370421 5.56533069 5.6875 8.625 C6.34298828 9.78902344 6.34298828 9.78902344 7.01171875 10.9765625 C8 13 8 13 8 15 C7.34 15 6.68 15 6 15 C5.32845067 13.71086513 4.66291141 12.41859796 4 11.125 C3.62875 10.40570313 3.2575 9.68640625 2.875 8.9453125 C2 7 2 7 2 5 C1.34 5 0.68 5 0 5 C0 3.35 0 1.7 0 0 Z " fill="#4194C1" transform="translate(167,125)"/>
<path d="M0 0 C9.59453303 2.89066059 9.59453303 2.89066059 13 6 C11.02 6.33 9.04 6.66 7 7 C6.34 6.01 5.68 5.02 5 4 C2.44816596 2.79549696 2.44816596 2.79549696 0 2 C0 1.34 0 0.68 0 0 Z " fill="#DAF5FA" transform="translate(174,193)"/>
<path d="M0 0 C3.41703059 2.2780204 3.79651189 3.38372165 5.1875 7.125 C5.53167969 8.03507812 5.87585938 8.94515625 6.23046875 9.8828125 C6.48441406 10.58148438 6.73835937 11.28015625 7 12 C6.01 12 5.02 12 4 12 C3.87625 11.360625 3.7525 10.72125 3.625 10.0625 C3.41875 9.381875 3.2125 8.70125 3 8 C2.34 7.67 1.68 7.34 1 7 C0.59270772 4.67843403 0.25561323 2.3431213 0 0 Z " fill="#F7FBFC" transform="translate(135,52)"/>
<path d="M0 0 C3.53790403 3.69172595 3.59115883 7.09390595 4 12 C3.67 11.01 3.34 10.02 3 9 C2.34 9 1.68 9 1 9 C0.63877119 7.68942607 0.28619689 6.37646376 -0.0625 5.0625 C-0.35833984 3.96615234 -0.35833984 3.96615234 -0.66015625 2.84765625 C-0.77230469 2.23792969 -0.88445312 1.62820312 -1 1 C-0.67 0.67 -0.34 0.34 0 0 Z " fill="#C6C6C8" transform="translate(139,153)"/>
<path d="M0 0 C0.66 0.33 1.32 0.66 2 1 C-0.1875 3.5625 -0.1875 3.5625 -3 6 C-5.8125 5.8125 -5.8125 5.8125 -8 5 C-5.31158141 2.74754119 -3.35358125 1.11786042 0 0 Z " fill="#E9ECEB" transform="translate(62,208)"/>
<path d="M0 0 C0.66 0.66 1.32 1.32 2 2 C1.04367001 3.29315061 0.08486149 4.58446853 -0.875 5.875 C-1.40867187 6.59429687 -1.94234375 7.31359375 -2.4921875 8.0546875 C-4 10 -4 10 -6 12 C-5.43958106 7.23643901 -3.41302403 3.41302403 0 0 Z " fill="#BAB8B6" transform="translate(121,147)"/>
<path d="M0 0 C0.93423645 3.01031744 1.04449911 3.86650268 0 7 C-0.66 7 -1.32 7 -2 7 C-2.66 8.32 -3.32 9.64 -4 11 C-4.33 10.34 -4.66 9.68 -5 9 C-4.00390625 6.8359375 -4.00390625 6.8359375 -2.5625 4.375 C-2.08941406 3.55773437 -1.61632812 2.74046875 -1.12890625 1.8984375 C-0.75636719 1.27195313 -0.38382812 0.64546875 0 0 Z " fill="#F7F9F7" transform="translate(78,139)"/>
<path d="M0 0 C0.33 0 0.66 0 1 0 C1 1.65 1 3.3 1 5 C0.34 5 -0.32 5 -1 5 C-1 6.32 -1 7.64 -1 9 C-1.66 9 -2.32 9 -3 9 C-3.33 9.99 -3.66 10.98 -4 12 C-4.33 11.34 -4.66 10.68 -5 10 C-4.00390625 7.6171875 -4.00390625 7.6171875 -2.5625 4.875 C-1.85287109 3.50988281 -1.85287109 3.50988281 -1.12890625 2.1171875 C-0.75636719 1.41851562 -0.38382812 0.71984375 0 0 Z " fill="#F8F9F8" transform="translate(114,66)"/>
<path d="M0 0 C2.9375 0.75 2.9375 0.75 6 2 C6.875 4.125 6.875 4.125 7 6 C4.0625 5.25 4.0625 5.25 1 4 C0.125 1.875 0.125 1.875 0 0 Z " fill="#EFF9FC" transform="translate(196,204)"/>
<path d="M0 0 C-1.45264038 0.8638129 -2.9123163 1.71580454 -4.375 2.5625 C-5.59316406 3.27599609 -5.59316406 3.27599609 -6.8359375 4.00390625 C-7.55007812 4.33261719 -8.26421875 4.66132813 -9 5 C-9.66 4.67 -10.32 4.34 -11 4 C-9.73760288 3.13341385 -8.46472499 2.28207941 -7.1875 1.4375 C-6.47980469 0.96183594 -5.77210937 0.48617187 -5.04296875 -0.00390625 C-3 -1 -3 -1 0 0 Z " fill="#B1ADAB" transform="translate(57,211)"/>
<path d="M0 0 C0 0.66 0 1.32 0 2 C-6.0546875 2.9765625 -6.0546875 2.9765625 -8 3 C-8.66 2.34 -9.32 1.68 -10 1 C-6.61981469 -0.04005702 -3.5219721 -0.08004482 0 0 Z " fill="#BABAB9" transform="translate(115,187)"/>
<path d="M0 0 C0.66 0 1.32 0 2 0 C2.66 2.31 3.32 4.62 4 7 C2.68 6.34 1.36 5.68 0 5 C0 5.66 0 6.32 0 7 C-0.66 7 -1.32 7 -2 7 C-1.34 4.69 -0.68 2.38 0 0 Z " fill="#4F98BE" transform="translate(127,41)"/>
<path d="M0 0 C0.66 0.33 1.32 0.66 2 1 C-0.475 5.455 -0.475 5.455 -3 10 C-4 6 -4 6 -2.0625 2.75 C-1.381875 1.8425 -0.70125 0.935 0 0 Z " fill="#E0F8FD" transform="translate(60,176)"/>
<path d="M0 0 C2.4375 1.3125 2.4375 1.3125 3.25 3.4375 C3.311875 4.05625 3.37375 4.675 3.4375 5.3125 C0.06246331 4.1266763 -2.20972731 3.03676311 -4.5625 0.3125 C-2.5625 -0.6875 -2.5625 -0.6875 0 0 Z " fill="#C1C0BD" transform="translate(200.5625,208.6875)"/>
<path d="M0 0 C-0.33 0.66 -0.66 1.32 -1 2 C-3.06640625 2.4140625 -3.06640625 2.4140625 -5.5625 2.625 C-6.38878906 2.69976562 -7.21507813 2.77453125 -8.06640625 2.8515625 C-9.02353516 2.92503906 -9.02353516 2.92503906 -10 3 C-8.0130571 -0.97388579 -3.91761109 -0.08705802 0 0 Z " fill="#B0B0AB" transform="translate(107,189)"/>
</svg>
